<svg xmlns="http://www.w3.org/2000/svg" xmlns:xlink="http://www.w3.org/1999/xlink" version="1.1" x="0px" y="0px" viewBox="0 0 10 12.5" enable-background="new 0 0 10 10" xml:space="preserve"><g><circle cx="4.642" cy="5.465" r="0.375"/><circle cx="6.687" cy="5.465" r="0.375"/><path d="M5.393,6.445c0,0-0.396,0.443-0.91,0.514c0,0,0.278,0.061,0.542-0.043L4.96,6.992c0,0,0.3-0.018,0.385-0.09l-0.051,0.09   c0,0,0.485-0.115,0.381-0.408C5.571,6.285,5.393,6.445,5.393,6.445z"/><path d="M5.966,6.432c0,0,0.397,0.441,0.91,0.514c0,0-0.276,0.061-0.54-0.043L6.4,6.979c0,0-0.302-0.02-0.386-0.09l0.051,0.09   c0,0-0.483-0.115-0.381-0.41C5.788,6.271,5.966,6.432,5.966,6.432z"/><g><g><path d="M1.631,7.248C1.639,7.244,1.648,7.244,1.66,7.24c0.011,0,0.024-0.004,0.038-0.004C1.711,7.234,1.727,7.234,1.742,7.23     c0.016,0,0.033,0,0.051-0.002C1.81,7.225,1.829,7.223,1.847,7.223c0.018,0,0.038,0,0.056,0c0.009,0,0.019,0,0.028,0     c0.01-0.004,0.019,0,0.028,0c0.019,0,0.038,0,0.055,0c0.018,0,0.034,0,0.05,0c0.017,0,0.032,0,0.045,0     c0.057,0.002,0.095,0.002,0.095,0.002S2.167,7.217,2.112,7.207c-0.015,0-0.031-0.004-0.046-0.004     C2.048,7.201,2.032,7.199,2.014,7.197c-0.018,0-0.036,0-0.055,0C1.949,7.193,1.94,7.193,1.931,7.193     c-0.009,0-0.019,0-0.028,0.004c-0.02,0-0.039,0-0.057,0L1.832,7.199c-0.005,0-0.009,0-0.013,0.002     C1.808,7.203,1.8,7.203,1.791,7.203C1.772,7.207,1.756,7.207,1.739,7.211c-0.016,0.004-0.031,0.008-0.044,0.01     S1.669,7.229,1.657,7.23C1.646,7.234,1.636,7.24,1.629,7.24C1.612,7.248,1.604,7.254,1.604,7.254s0.003-0.002,0.008-0.002     C1.616,7.252,1.623,7.25,1.631,7.248z"/><path d="M8.436,4.527l-0.008-0.03C8.426,4.488,8.424,4.481,8.423,4.473L8.414,4.45L8.41,4.437L8.409,4.436V4.428L8.405,4.427     L8.403,4.419C8.389,4.383,8.366,4.347,8.334,4.32C8.302,4.291,8.26,4.273,8.221,4.271c-0.076-0.01-0.13,0.02-0.174,0.045     C8.006,4.339,7.974,4.366,7.948,4.39C7.922,4.415,7.902,4.436,7.893,4.45C7.89,4.399,7.888,4.351,7.888,4.305     C7.883,4.135,7.877,4,7.874,3.91C7.87,3.858,7.869,3.821,7.869,3.798C7.888,3.774,7.903,3.75,7.915,3.736     c0.021-0.032,0.03-0.05,0.03-0.05s-0.052,0.06-0.158,0.145C7.764,3.851,7.734,3.875,7.7,3.898     C7.683,3.91,7.665,3.922,7.649,3.936C7.631,3.948,7.612,3.959,7.592,3.974c-0.021,0.013-0.04,0.025-0.061,0.04     C7.51,4.024,7.486,4.036,7.463,4.05c-0.023,0.011-0.044,0.028-0.07,0.04C7.367,4.102,7.344,4.114,7.317,4.127     C7.269,4.155,7.209,4.175,7.154,4.201C7.099,4.225,7.038,4.247,6.976,4.268C6.915,4.291,6.851,4.307,6.783,4.327     C6.751,4.334,6.718,4.345,6.683,4.355C6.649,4.362,6.614,4.369,6.58,4.377C6.545,4.383,6.509,4.393,6.475,4.4     C6.438,4.405,6.402,4.411,6.366,4.417C6.294,4.425,6.22,4.439,6.146,4.445S5.998,4.461,5.922,4.463     C5.843,4.465,5.765,4.467,5.688,4.469L5.658,4.471H5.646H5.633L5.575,4.47L5.461,4.467c-0.039,0-0.077-0.002-0.114-0.004     c-0.04-0.002-0.075-0.006-0.113-0.01C5.084,4.442,4.938,4.422,4.798,4.395C4.729,4.379,4.661,4.363,4.594,4.347     C4.528,4.329,4.462,4.311,4.402,4.291C4.339,4.268,4.279,4.247,4.224,4.223C4.168,4.198,4.112,4.177,4.062,4.151     C3.96,4.096,3.868,4.045,3.792,3.99C3.753,3.963,3.718,3.939,3.686,3.914C3.669,3.901,3.655,3.888,3.642,3.877     C3.626,3.864,3.612,3.853,3.6,3.841C3.55,3.795,3.513,3.757,3.489,3.729C3.464,3.704,3.452,3.686,3.452,3.686     S3.46,3.705,3.479,3.737c0.014,0.021,0.032,0.052,0.057,0.086L3.473,3.77c0,0-0.001,0.05-0.003,0.14     C3.466,4,3.459,4.135,3.454,4.305C3.453,4.347,3.452,4.391,3.45,4.437C3.439,4.425,3.424,4.409,3.403,4.389     c-0.025-0.023-0.057-0.05-0.099-0.073C3.26,4.291,3.207,4.261,3.129,4.271C3.093,4.273,3.049,4.291,3.018,4.32     c-0.034,0.027-0.055,0.063-0.07,0.099L2.945,4.427L2.943,4.428L2.942,4.436L2.941,4.437L2.936,4.45L2.929,4.473     C2.927,4.481,2.924,4.488,2.923,4.499L2.917,4.527C2.908,4.569,2.906,4.606,2.904,4.646C2.901,4.72,2.905,4.796,2.915,4.872     C2.923,4.947,2.936,5.02,2.948,5.094C2.962,5.167,2.977,5.24,2.989,5.311C3.001,5.378,3.014,5.45,3.016,5.509     c0,0.015,0,0.026,0,0.04S3.012,5.568,3.012,5.58l0,0l0,0c0,0-0.006,0.018-0.005,0.01v0.004v0.008l-0.003,0.01     C3.002,5.621,3,5.623,2.997,5.641c0,0.015-0.001,0.03-0.001,0.043c0,0.015,0.005,0.023,0.006,0.037     c0.021,0.09,0.086,0.145,0.148,0.176c0.063,0.029,0.128,0.035,0.182,0.018C3.343,5.91,3.357,5.906,3.368,5.9     c0.01-0.008,0.021-0.016,0.03-0.02c0.007-0.002,0.009-0.008,0.016-0.014C3.407,6.119,3.403,6.385,3.399,6.658     c0,0.043-0.001,0.084-0.001,0.129L3.397,6.852C3.395,6.881,3.398,6.902,3.4,6.924c0.009,0.09,0.025,0.178,0.047,0.268     c0.016,0.07,0.036,0.137,0.058,0.203C3.467,7.408,3.43,7.422,3.392,7.439H3.391L3.339,7.43L2.978,7.561     C2.974,7.557,2.967,7.553,2.961,7.549c-0.018-0.002-0.037,0.01-0.039,0.029c0,0-0.001,0.012-0.001,0.025L2.494,7.738     C2.355,7.771,2.352,7.691,2.352,7.691L2.204,7.225c-0.34,0.07-0.599,0.029-0.599,0.029S1.528,7.455,1.559,7.811     c0.033,0.357,0.422,0.396,0.422,0.396c0.308,0.043,0.95-0.285,1.042-0.336C3.03,7.877,3.039,7.887,3.044,7.893     C3.05,7.9,3.06,7.904,3.068,7.904c0.009,0,0.017-0.004,0.025-0.01C3.1,7.887,3.101,7.875,3.1,7.863l0.37-0.152L3.484,7.67H3.482     c0.021-0.012,0.06-0.027,0.116-0.057C3.615,7.648,3.63,7.678,3.649,7.711c0.093,0.166,0.21,0.328,0.355,0.461     c0.143,0.135,0.312,0.25,0.493,0.334C4.68,8.594,4.874,8.654,5.072,8.688c0.099,0.018,0.199,0.031,0.299,0.041l0.078,0.006     c0.024,0,0.049,0,0.073,0.004c0.049,0,0.094,0.002,0.148,0.002c0.398-0.002,0.808-0.057,1.173-0.232     c0.183-0.084,0.352-0.197,0.493-0.336c0.146-0.133,0.262-0.291,0.356-0.459c0.093-0.17,0.159-0.344,0.2-0.521     c0.021-0.09,0.038-0.178,0.048-0.268c0.002-0.021,0.004-0.043,0.004-0.07V6.787C7.943,6.742,7.943,6.701,7.943,6.66     C7.939,6.379,7.935,6.111,7.928,5.859c0.008,0.008,0.016,0.016,0.024,0.021S7.973,5.893,7.981,5.9     C7.992,5.906,8.007,5.912,8.02,5.914c0.052,0.018,0.118,0.012,0.183-0.018c0.06-0.031,0.124-0.086,0.146-0.176     c0.003-0.014,0.005-0.022,0.005-0.037c0-0.014,0-0.028,0-0.043c-0.001-0.018-0.005-0.02-0.006-0.029L8.344,5.6V5.594V5.59     c0.002,0.008-0.005-0.011-0.002-0.01l0,0V5.579c0-0.011-0.007-0.017-0.007-0.031s-0.001-0.024,0-0.041     C8.337,5.45,8.352,5.378,8.362,5.311c0.014-0.072,0.026-0.143,0.041-0.216C8.414,5.02,8.428,4.947,8.437,4.872     C8.447,4.796,8.45,4.72,8.447,4.646C8.447,4.606,8.444,4.569,8.436,4.527z M3.436,4.92c0,0.048-0.002,0.1-0.003,0.154     C3.425,5.062,3.418,5.05,3.411,5.036C3.4,5.02,3.393,5.006,3.383,4.992c-0.01-0.014-0.019-0.028-0.032-0.04     C3.339,4.938,3.331,4.928,3.318,4.918c-0.011-0.012-0.024-0.02-0.035-0.026C3.272,4.884,3.26,4.88,3.25,4.876     C3.246,4.873,3.241,4.872,3.238,4.869C3.232,4.868,3.229,4.868,3.225,4.868C3.21,4.866,3.201,4.866,3.201,4.866     S3.21,4.868,3.225,4.872c0.001,0.001,0.007,0.001,0.011,0.004C3.239,4.88,3.243,4.88,3.248,4.884     c0.006,0.004,0.018,0.01,0.025,0.02c0.01,0.008,0.019,0.018,0.028,0.03c0.009,0.01,0.017,0.022,0.024,0.036     c0.007,0.014,0.015,0.028,0.021,0.043c0.006,0.014,0.013,0.029,0.02,0.045C3.389,5.12,3.4,5.185,3.411,5.234     c0.005,0.024,0.007,0.045,0.008,0.06c0.001,0.013,0.003,0.022,0.003,0.022h0.003c-0.003,0.127-0.007,0.261-0.009,0.4     c0,0.031,0,0.063-0.001,0.094C3.388,5.824,3.355,5.842,3.318,5.84c-0.036,0-0.075-0.016-0.109-0.041     C3.175,5.771,3.15,5.73,3.15,5.693c0-0.004,0-0.01,0-0.012C3.151,5.68,3.152,5.678,3.151,5.676     C3.15,5.673,3.165,5.639,3.165,5.641c0.006-0.02,0.017-0.046,0.019-0.066c0.002-0.02,0.008-0.041,0.008-0.063     c0.001-0.02,0.001-0.038,0.001-0.06c0-0.018,0-0.036-0.001-0.057C3.189,5.355,3.185,5.318,3.18,5.283     c-0.009-0.077-0.021-0.15-0.036-0.225C3.132,4.986,3.118,4.914,3.106,4.845C3.094,4.775,3.086,4.706,3.08,4.643     c0-0.015-0.001-0.032-0.002-0.047c0-0.017,0.001-0.028,0-0.041V4.533c0-0.006,0.002-0.016,0.005-0.022l0.002-0.024l0.003-0.012     V4.471l0,0c0.001-0.004-0.001,0.006-0.001,0.006l0.001-0.002V4.47C3.1,4.421,3.118,4.395,3.15,4.38     c0.035-0.011,0.084-0.007,0.124,0.003C3.314,4.395,3.351,4.409,3.38,4.422c0.031,0.013,0.052,0.023,0.069,0.033     C3.445,4.592,3.44,4.748,3.436,4.92z M7.81,5.717C7.805,6.01,7.796,6.328,7.794,6.66C7.793,6.701,7.793,6.742,7.793,6.787v0.066     c0,0.012-0.006,0.035-0.007,0.053c-0.01,0.08-0.028,0.162-0.051,0.244C7.692,7.313,7.627,7.475,7.542,7.627     c-0.09,0.15-0.197,0.291-0.33,0.41C7.08,8.156,6.928,8.256,6.763,8.334C6.432,8.49,6.05,8.541,5.671,8.541     c-0.09-0.002-0.198,0-0.284-0.01c-0.093-0.004-0.188-0.02-0.281-0.035C4.924,8.463,4.743,8.412,4.578,8.334     C4.415,8.256,4.263,8.156,4.131,8.037c-0.133-0.119-0.241-0.26-0.329-0.41C3.787,7.6,3.771,7.572,3.759,7.547     C4.12,7.406,4.779,7.199,5.522,7.219c0.01,0.088,0.086,0.158,0.179,0.158c0.1,0,0.182-0.082,0.182-0.18     c0-0.096-0.082-0.178-0.182-0.178c-0.072,0-0.134,0.041-0.163,0.102c-0.27-0.02-1.082-0.051-1.871,0.215     C3.644,7.275,3.623,7.215,3.606,7.15c-0.023-0.082-0.041-0.164-0.05-0.244C3.554,6.889,3.551,6.865,3.551,6.854V6.787     C3.55,6.742,3.548,6.701,3.548,6.66C3.543,6.328,3.537,6.01,3.531,5.717c-0.005-0.249-0.012-0.48-0.017-0.691     c0.029-0.395,0.102-0.851,0.274-0.938C3.85,4.142,3.923,4.195,4.006,4.247c0.05,0.034,0.104,0.064,0.162,0.097     c0.056,0.029,0.12,0.055,0.182,0.085C4.412,4.456,4.48,4.478,4.548,4.505c0.067,0.024,0.14,0.039,0.213,0.06     C4.908,4.6,5.061,4.631,5.217,4.646c0.038,0.003,0.078,0.008,0.117,0.012C5.373,4.66,5.413,4.662,5.453,4.664l0.119,0.004     l0.06,0.003h0.016h0.019h0.028c0.078-0.003,0.157-0.007,0.233-0.009c0.079-0.004,0.16-0.016,0.238-0.024     c0.082-0.006,0.156-0.022,0.233-0.037c0.037-0.007,0.075-0.015,0.113-0.023c0.037-0.009,0.072-0.019,0.109-0.028     C6.658,4.54,6.693,4.53,6.729,4.52c0.035-0.01,0.068-0.024,0.104-0.036C6.902,4.459,6.968,4.435,7.03,4.405     C7.094,4.379,7.154,4.353,7.209,4.32c0.058-0.031,0.112-0.059,0.163-0.093c0.052-0.032,0.1-0.063,0.143-0.096     c0.015-0.01,0.027-0.019,0.038-0.029C7.729,4.198,7.798,4.681,7.824,5.08C7.821,5.278,7.814,5.489,7.81,5.717z M7.861,3.91     c0,0.007,0,0.016,0,0.022l0.002-0.127c0.002-0.001,0.002-0.002,0.002-0.002C7.865,3.823,7.865,3.86,7.861,3.91z M8.273,4.595     c0,0.016-0.003,0.032-0.003,0.048C8.265,4.708,8.259,4.776,8.245,4.846C8.234,4.915,8.22,4.986,8.207,5.058     C8.192,5.132,8.18,5.206,8.17,5.283C8.166,5.318,8.161,5.355,8.16,5.394c0,0.021-0.003,0.039-0.003,0.057     c0,0.022,0.003,0.04,0.003,0.06c0,0.022,0.005,0.044,0.006,0.063C8.169,5.595,8.18,5.621,8.187,5.643     c0-0.004,0.016,0.031,0.012,0.035c0,0,0,0.002,0.004,0.004c0.001,0.004,0,0.01,0,0.014c0,0.035-0.024,0.078-0.058,0.105     C8.108,5.824,8.067,5.84,8.032,5.84C7.994,5.842,7.964,5.824,7.936,5.811c-0.001-0.004-0.004-0.006-0.01-0.008     c0-0.027-0.001-0.059-0.001-0.084c-0.003-0.142-0.007-0.275-0.01-0.402h0.003c0,0,0-0.009,0.003-0.022     c0.002-0.015,0.004-0.036,0.009-0.06c0.01-0.05,0.022-0.114,0.044-0.176C7.98,5.042,7.986,5.027,7.992,5.012     C8,4.998,8.009,4.984,8.015,4.968C8.022,4.954,8.03,4.944,8.04,4.934c0.007-0.012,0.018-0.022,0.027-0.03     c0.007-0.01,0.018-0.016,0.027-0.02C8.098,4.88,8.101,4.88,8.107,4.876c0.001-0.003,0.006-0.003,0.007-0.004     c0.018-0.004,0.023-0.006,0.023-0.006s-0.006,0-0.023,0.002c-0.003,0-0.007,0-0.012,0.001C8.099,4.872,8.095,4.873,8.09,4.876     C8.08,4.88,8.067,4.884,8.058,4.892C8.047,4.898,8.033,4.906,8.022,4.918C8.01,4.928,8,4.938,7.988,4.952     c-0.01,0.012-0.021,0.026-0.031,0.04C7.945,5.006,7.94,5.02,7.93,5.036C7.922,5.048,7.915,5.062,7.908,5.072     c-0.006-0.23-0.012-0.438-0.016-0.613c0.015-0.008,0.042-0.02,0.08-0.037C8,4.409,8.039,4.395,8.08,4.383     c0.038-0.01,0.086-0.014,0.122-0.003c0.032,0.015,0.046,0.042,0.061,0.09v0.005l0.002,0.002c0,0-0.003-0.01-0.002-0.006l0,0     v0.004l0.002,0.012l0.006,0.024c0,0.008,0.003,0.016,0.003,0.022v0.021C8.273,4.568,8.276,4.579,8.273,4.595z"/></g><path d="M3.644,3.652c0.061-0.01,0.134-0.021,0.222-0.033c0.085-0.013,0.181-0.024,0.286-0.037C4.257,3.57,4.372,3.56,4.492,3.547    c0.121-0.01,0.249-0.021,0.379-0.029c0.133-0.008,0.269-0.017,0.409-0.02C5.349,3.496,5.419,3.493,5.488,3.49    c0.07,0,0.141,0,0.212,0c0.142-0.003,0.281,0.002,0.42,0.007C6.259,3.498,6.396,3.51,6.528,3.516    c0.131,0.004,0.26,0.021,0.379,0.031c0.062,0.005,0.119,0.01,0.176,0.017C7.14,3.57,7.195,3.578,7.246,3.584    c0.104,0.014,0.202,0.023,0.29,0.037C7.62,3.635,7.693,3.647,7.754,3.657c0.078,0.012,0.134,0.021,0.164,0.026    c0.01,0.001,0.014,0.002,0.014,0.002S7.93,3.685,7.925,3.685c0.001,0,0.005,0,0.007,0v0.001V3.685    c0.01,0.001,0.015,0.001,0.015,0.001S7.941,3.685,7.932,3.683c0-0.01-0.002-0.032-0.009-0.069    C7.916,3.567,7.907,3.498,7.888,3.411C7.847,3.238,7.771,2.99,7.615,2.724C7.537,2.593,7.438,2.455,7.313,2.327    C7.188,2.199,7.04,2.078,6.868,1.982C6.699,1.887,6.508,1.811,6.31,1.766C6.148,1.729,5.988,1.711,5.821,1.703    C5.948,1.633,6.168,1.5,6.17,1.384c0.002-0.027-0.01-0.068-0.071-0.101C6.071,1.27,6.041,1.26,6.014,1.26    c-0.153,0-0.243,0.226-0.287,0.361c-0.042-0.135-0.134-0.348-0.28-0.348c-0.03,0-0.059,0.009-0.087,0.023    C5.301,1.329,5.29,1.369,5.29,1.398C5.293,1.505,5.482,1.63,5.611,1.701L5.54,1.704c-0.05,0-0.103,0.005-0.153,0.011l-0.079,0.01    C5.281,1.728,5.257,1.734,5.231,1.737C5.179,1.746,5.129,1.753,5.08,1.769c-0.2,0.044-0.39,0.119-0.562,0.216    C4.349,2.081,4.199,2.2,4.075,2.328C3.951,2.455,3.852,2.593,3.774,2.727C3.616,2.994,3.54,3.24,3.499,3.412    C3.477,3.498,3.467,3.567,3.46,3.614C3.454,3.662,3.452,3.686,3.452,3.686S3.47,3.586,3.528,3.419    c0.055-0.167,0.15-0.401,0.318-0.647c0.083-0.125,0.186-0.248,0.308-0.365C4.277,2.291,4.421,2.185,4.583,2.1    C4.73,2.02,4.895,1.962,5.065,1.919C4.885,2.157,4.564,2.673,4.533,3.335C4.51,3.342,4.485,3.347,4.464,3.351    C4.343,3.377,4.23,3.407,4.126,3.437C3.919,3.496,3.75,3.56,3.632,3.605c-0.116,0.048-0.181,0.08-0.181,0.08    s0.067-0.024,0.186-0.062c0.063-0.018,0.134-0.04,0.22-0.063c0.083-0.023,0.178-0.045,0.284-0.07    c0.104-0.023,0.218-0.045,0.337-0.066C4.6,3.402,4.727,3.384,4.86,3.367C4.992,3.35,5.129,3.338,5.268,3.328    C5.338,3.323,5.41,3.32,5.481,3.317c0.072-0.002,0.14-0.005,0.211-0.005c0.143,0,0.285,0.002,0.425,0.012    c0.071,0.004,0.14,0.009,0.21,0.015c0.066,0.007,0.134,0.012,0.2,0.022c0.065,0.006,0.131,0.017,0.194,0.027    c0.063,0.01,0.126,0.018,0.186,0.029c0.12,0.021,0.232,0.047,0.338,0.07c0.054,0.011,0.102,0.027,0.147,0.037    c0.05,0.013,0.094,0.023,0.137,0.036c0.083,0.025,0.157,0.045,0.215,0.066C7.793,3.64,7.831,3.654,7.863,3.664    C7.835,3.657,7.8,3.647,7.758,3.638c-0.06-0.016-0.133-0.033-0.216-0.054C7.457,3.563,7.36,3.547,7.256,3.528    c-0.052-0.01-0.107-0.021-0.164-0.031c-0.057-0.01-0.116-0.016-0.175-0.025c-0.121-0.014-0.25-0.037-0.383-0.043    C6.467,3.422,6.399,3.417,6.332,3.412C6.296,3.408,6.263,3.406,6.229,3.404C6.194,3.402,6.16,3.402,6.124,3.4    c-0.14-0.005-0.281-0.013-0.425-0.01C5.628,3.392,5.556,3.392,5.486,3.393C5.416,3.395,5.345,3.399,5.276,3.4    C5.134,3.406,4.998,3.418,4.864,3.428c-0.133,0.011-0.26,0.029-0.382,0.043C4.362,3.49,4.249,3.506,4.143,3.526    C4.039,3.543,3.942,3.563,3.857,3.583C3.774,3.602,3.702,3.62,3.639,3.635c-0.12,0.031-0.188,0.051-0.188,0.051    S3.47,3.685,3.503,3.677C3.536,3.671,3.583,3.663,3.644,3.652z M6.014,1.31c0.021,0,0.041,0.006,0.063,0.018    C6.122,1.351,6.12,1.375,6.12,1.382C6.118,1.467,5.917,1.598,5.764,1.675C5.801,1.542,5.89,1.31,6.014,1.31z M5.338,1.396    c0-0.007,0-0.031,0.046-0.056c0.021-0.011,0.042-0.016,0.063-0.016c0.124,0,0.212,0.23,0.249,0.367    C5.542,1.612,5.34,1.479,5.338,1.396z M6.333,3.247c-0.067-0.008-0.139-0.014-0.21-0.018c-0.142-0.01-0.285-0.014-0.431-0.015    C5.62,3.214,5.549,3.217,5.476,3.219C5.405,3.223,5.333,3.228,5.262,3.232C5.119,3.244,4.983,3.26,4.848,3.279    C4.756,3.293,4.668,3.31,4.583,3.327C4.62,2.631,4.98,2.105,5.143,1.901c0.036-0.008,0.074-0.016,0.111-0.021    c0.024-0.004,0.047-0.007,0.073-0.012l0.071-0.006c0.049-0.005,0.096-0.012,0.148-0.012L5.621,1.85l0.038-0.002h0.034    c0.145,0.002,0.286,0.01,0.425,0.032C6.27,2.062,6.651,2.59,6.698,3.3C6.645,3.29,6.593,3.282,6.539,3.273    C6.472,3.263,6.402,3.254,6.333,3.247z M7.749,3.607c-0.056-0.024-0.127-0.05-0.21-0.083c-0.081-0.029-0.176-0.06-0.278-0.092    c-0.054-0.015-0.106-0.03-0.162-0.045C7.041,3.371,6.981,3.358,6.923,3.345C6.865,3.329,6.806,3.319,6.747,3.308    C6.705,2.631,6.365,2.111,6.194,1.891c0.026,0.007,0.055,0.011,0.082,0.016c0.189,0.043,0.368,0.106,0.528,0.192    C6.968,2.184,7.11,2.29,7.233,2.406c0.122,0.116,0.226,0.241,0.309,0.365c0.165,0.247,0.262,0.481,0.317,0.647    c0.049,0.149,0.068,0.244,0.072,0.264C7.926,3.681,7.918,3.68,7.908,3.677C7.883,3.664,7.828,3.64,7.749,3.607z"/></g></g><text x="0" y="25" fill="#000000" font-size="5px" font-weight="bold" font-family="'Helvetica Neue', Helvetica, Arial-Unicode, Arial, Sans-serif">Created by Clément Branger</text><text x="0" y="30" fill="#000000" font-size="5px" font-weight="bold" font-family="'Helvetica Neue', Helvetica, Arial-Unicode, Arial, Sans-serif">from the Noun Project</text></svg>